<mxfile host="app.diagrams.net" modified="2021-02-06T06:02:07.050Z" agent="5.0 (Macintosh; Intel Mac OS X 10_13_6) AppleWebKit/605.1.15 (KHTML, like Gecko) Version/13.1.2 Safari/605.1.15" etag="Q23-C9uuVlayFW9frXkr" version="14.2.7" type="github">
  <diagram id="ARM21P00BI7gyOtzE6jt" name="Page-1">
    <mxGraphModel dx="906" dy="674" grid="1" gridSize="10" guides="1" tooltips="1" connect="1" arrows="1" fold="1" page="1" pageScale="1" pageWidth="1169" pageHeight="827" math="0" shadow="0">
      <root>
        <mxCell id="0" />
        <mxCell id="1" parent="0" />
        <mxCell id="nxBt3rA2UtLreLydVFGP-22" value="" style="group" vertex="1" connectable="0" parent="1">
          <mxGeometry x="1230" y="880" width="650" height="640" as="geometry" />
        </mxCell>
        <mxCell id="nxBt3rA2UtLreLydVFGP-23" value="" style="group;labelBackgroundColor=#FFFFFF;labelBorderColor=#FFFFFF;" vertex="1" connectable="0" parent="nxBt3rA2UtLreLydVFGP-22">
          <mxGeometry width="650" height="640" as="geometry" />
        </mxCell>
        <mxCell id="nxBt3rA2UtLreLydVFGP-116" value="" style="endArrow=open;html=1;strokeWidth=3;fillColor=#dae8fc;endFill=0;" edge="1" parent="1">
          <mxGeometry x="313" y="55" width="50" height="50" as="geometry">
            <mxPoint x="593" y="135" as="sourcePoint" />
            <mxPoint x="593" y="205" as="targetPoint" />
            <Array as="points" />
          </mxGeometry>
        </mxCell>
        <mxCell id="nxBt3rA2UtLreLydVFGP-117" value="&amp;nbsp;Bridge PCR&lt;br&gt;and sequencing" style="text;html=1;align=center;verticalAlign=middle;resizable=0;points=[];autosize=1;fontSize=16;" vertex="1" parent="1">
          <mxGeometry x="600" y="147.5" width="130" height="40" as="geometry" />
        </mxCell>
        <mxCell id="nxBt3rA2UtLreLydVFGP-118" value="5" style="ellipse;whiteSpace=wrap;html=1;aspect=fixed;strokeWidth=2;fontSize=16;" vertex="1" parent="1">
          <mxGeometry x="547" y="155" width="25" height="25" as="geometry" />
        </mxCell>
        <mxCell id="nxBt3rA2UtLreLydVFGP-137" value="" style="group" vertex="1" connectable="0" parent="1">
          <mxGeometry x="1410" y="1330" width="650" height="640" as="geometry" />
        </mxCell>
        <mxCell id="nxBt3rA2UtLreLydVFGP-138" value="" style="group;labelBackgroundColor=#FFFFFF;labelBorderColor=#FFFFFF;" vertex="1" connectable="0" parent="nxBt3rA2UtLreLydVFGP-137">
          <mxGeometry width="650" height="640" as="geometry" />
        </mxCell>
        <mxCell id="nxBt3rA2UtLreLydVFGP-154" value="" style="group" vertex="1" connectable="0" parent="1">
          <mxGeometry x="773" y="270" width="90" as="geometry" />
        </mxCell>
        <mxCell id="nxBt3rA2UtLreLydVFGP-155" value="" style="endArrow=none;html=1;strokeWidth=4;fontSize=16;fillColor=#e3c800;" edge="1" parent="nxBt3rA2UtLreLydVFGP-154">
          <mxGeometry width="50" height="50" relative="1" as="geometry">
            <mxPoint x="30" as="sourcePoint" />
            <mxPoint as="targetPoint" />
          </mxGeometry>
        </mxCell>
        <mxCell id="nxBt3rA2UtLreLydVFGP-156" value="" style="endArrow=none;html=1;strokeWidth=4;fontSize=16;fillColor=#60a917;strokeColor=#318000;" edge="1" parent="nxBt3rA2UtLreLydVFGP-154">
          <mxGeometry width="50" height="50" relative="1" as="geometry">
            <mxPoint x="30" as="sourcePoint" />
            <mxPoint x="90" as="targetPoint" />
          </mxGeometry>
        </mxCell>
        <mxCell id="nxBt3rA2UtLreLydVFGP-161" value="5&#39;" style="text;html=1;align=center;verticalAlign=middle;resizable=0;points=[];autosize=1;fontSize=16;" vertex="1" parent="1">
          <mxGeometry x="323" y="260" width="30" height="20" as="geometry" />
        </mxCell>
        <mxCell id="nxBt3rA2UtLreLydVFGP-162" value="&lt;font color=&quot;#ff8000&quot; style=&quot;font-size: 15px&quot;&gt;Rd1 SP&lt;/font&gt;" style="text;html=1;align=center;verticalAlign=middle;resizable=0;points=[];autosize=1;fontSize=16;" vertex="1" parent="1">
          <mxGeometry x="418" y="245" width="70" height="30" as="geometry" />
        </mxCell>
        <mxCell id="nxBt3rA2UtLreLydVFGP-163" value="&lt;font color=&quot;#318000&quot;&gt;anti-P7&lt;/font&gt;" style="text;html=1;align=center;verticalAlign=middle;resizable=0;points=[];autosize=1;fontSize=16;" vertex="1" parent="1">
          <mxGeometry x="798" y="250" width="70" height="20" as="geometry" />
        </mxCell>
        <mxCell id="nxBt3rA2UtLreLydVFGP-164" value="3&#39;" style="text;html=1;align=center;verticalAlign=middle;resizable=0;points=[];autosize=1;fontSize=16;" vertex="1" parent="1">
          <mxGeometry x="863" y="260" width="30" height="20" as="geometry" />
        </mxCell>
        <mxCell id="nxBt3rA2UtLreLydVFGP-165" value="" style="group" vertex="1" connectable="0" parent="1">
          <mxGeometry x="503" y="260" width="280" height="40" as="geometry" />
        </mxCell>
        <mxCell id="nxBt3rA2UtLreLydVFGP-166" value="&lt;font color=&quot;#ff6666&quot; size=&quot;5&quot;&gt;&lt;span&gt;ACCC&lt;/span&gt;&lt;/font&gt;" style="text;html=1;strokeColor=none;fillColor=none;align=center;verticalAlign=middle;whiteSpace=wrap;rounded=0;" vertex="1" parent="nxBt3rA2UtLreLydVFGP-165">
          <mxGeometry width="40" height="20" as="geometry" />
        </mxCell>
        <mxCell id="nxBt3rA2UtLreLydVFGP-167" value="" style="endArrow=none;dashed=1;html=1;dashPattern=1 3;strokeWidth=4;fillColor=#1ba1e2;noLabel=1;fontColor=none;labelBackgroundColor=none;strokeColor=#FF6666;" edge="1" parent="nxBt3rA2UtLreLydVFGP-165">
          <mxGeometry width="50" height="50" relative="1" as="geometry">
            <mxPoint x="60" y="9.5" as="sourcePoint" />
            <mxPoint x="130" y="10" as="targetPoint" />
          </mxGeometry>
        </mxCell>
        <mxCell id="nxBt3rA2UtLreLydVFGP-168" value="&lt;font color=&quot;#ff6666&quot; size=&quot;5&quot;&gt;&lt;span&gt;GTTT&lt;/span&gt;&lt;/font&gt;" style="text;html=1;align=center;verticalAlign=middle;resizable=0;points=[];autosize=1;" vertex="1" parent="nxBt3rA2UtLreLydVFGP-165">
          <mxGeometry x="131" y="1" width="80" height="20" as="geometry" />
        </mxCell>
        <mxCell id="nxBt3rA2UtLreLydVFGP-169" value="" style="endArrow=none;html=1;strokeWidth=4;fontSize=16;strokeColor=#A680B8;" edge="1" parent="nxBt3rA2UtLreLydVFGP-165">
          <mxGeometry width="50" height="50" relative="1" as="geometry">
            <mxPoint x="210" y="9.5" as="sourcePoint" />
            <mxPoint x="270" y="10" as="targetPoint" />
          </mxGeometry>
        </mxCell>
        <mxCell id="nxBt3rA2UtLreLydVFGP-170" value="&lt;font color=&quot;#a680b8&quot; style=&quot;font-size: 16px&quot;&gt;Rd2 SP&lt;/font&gt;" style="text;html=1;align=center;verticalAlign=middle;resizable=0;points=[];autosize=1;fontSize=16;" vertex="1" parent="nxBt3rA2UtLreLydVFGP-165">
          <mxGeometry x="207" y="20" width="70" height="20" as="geometry" />
        </mxCell>
        <mxCell id="nxBt3rA2UtLreLydVFGP-171" value="" style="endArrow=none;html=1;strokeWidth=4;fontSize=16;fillColor=#fa6800;strokeColor=#FF8000;" edge="1" parent="1">
          <mxGeometry x="353" y="260" width="50" height="50" as="geometry">
            <mxPoint x="422.9999999999998" y="270" as="sourcePoint" />
            <mxPoint x="482.9999999999998" y="269.5" as="targetPoint" />
          </mxGeometry>
        </mxCell>
        <mxCell id="nxBt3rA2UtLreLydVFGP-172" value="&lt;font color=&quot;#ff6666&quot; size=&quot;5&quot;&gt;&lt;span&gt;CAAA&lt;/span&gt;&lt;/font&gt;" style="text;html=1;align=center;verticalAlign=middle;resizable=0;points=[];autosize=1;" vertex="1" parent="1">
          <mxGeometry x="633" y="289.5" width="80" height="20" as="geometry" />
        </mxCell>
        <mxCell id="nxBt3rA2UtLreLydVFGP-173" value="" style="endArrow=none;dashed=1;html=1;dashPattern=1 3;strokeWidth=4;strokeColor=#FF6666;" edge="1" parent="1">
          <mxGeometry width="50" height="50" relative="1" as="geometry">
            <mxPoint x="562.9999999999998" y="299.5" as="sourcePoint" />
            <mxPoint x="642.9999999999998" y="300" as="targetPoint" />
          </mxGeometry>
        </mxCell>
        <mxCell id="nxBt3rA2UtLreLydVFGP-174" value="&lt;font color=&quot;#ff6666&quot; size=&quot;5&quot;&gt;&lt;span&gt;TGGG&lt;/span&gt;&lt;/font&gt;" style="text;html=1;strokeColor=none;fillColor=none;align=center;verticalAlign=middle;whiteSpace=wrap;rounded=0;" vertex="1" parent="1">
          <mxGeometry x="503" y="289.5" width="40" height="20" as="geometry" />
        </mxCell>
        <mxCell id="nxBt3rA2UtLreLydVFGP-175" value="" style="group" vertex="1" connectable="0" parent="1">
          <mxGeometry x="353" y="299" width="130" height="0.5" as="geometry" />
        </mxCell>
        <mxCell id="nxBt3rA2UtLreLydVFGP-176" value="" style="endArrow=none;dashed=1;html=1;strokeColor=#000000;strokeWidth=4;fontSize=16;dashPattern=1 1;" edge="1" parent="nxBt3rA2UtLreLydVFGP-175">
          <mxGeometry width="50" height="50" relative="1" as="geometry">
            <mxPoint x="47" y="0.5" as="sourcePoint" />
            <mxPoint x="70" y="0.5" as="targetPoint" />
          </mxGeometry>
        </mxCell>
        <mxCell id="nxBt3rA2UtLreLydVFGP-177" value="" style="endArrow=none;html=1;strokeWidth=4;fontSize=16;strokeColor=#CC0066;" edge="1" parent="nxBt3rA2UtLreLydVFGP-175">
          <mxGeometry width="50" height="50" relative="1" as="geometry">
            <mxPoint y="0.5" as="sourcePoint" />
            <mxPoint x="47" y="0.5" as="targetPoint" />
          </mxGeometry>
        </mxCell>
        <mxCell id="nxBt3rA2UtLreLydVFGP-178" value="" style="endArrow=none;html=1;strokeWidth=4;fontSize=16;fillColor=#fa6800;strokeColor=#FF8000;" edge="1" parent="nxBt3rA2UtLreLydVFGP-175">
          <mxGeometry width="50" height="50" relative="1" as="geometry">
            <mxPoint x="70" y="0.5" as="sourcePoint" />
            <mxPoint x="130" as="targetPoint" />
          </mxGeometry>
        </mxCell>
        <mxCell id="nxBt3rA2UtLreLydVFGP-179" value="" style="group" vertex="1" connectable="0" parent="1">
          <mxGeometry x="773" y="300" width="90" as="geometry" />
        </mxCell>
        <mxCell id="nxBt3rA2UtLreLydVFGP-180" value="" style="endArrow=none;html=1;strokeWidth=4;fontSize=16;fillColor=#e3c800;" edge="1" parent="nxBt3rA2UtLreLydVFGP-179">
          <mxGeometry width="50" height="50" relative="1" as="geometry">
            <mxPoint x="30" as="sourcePoint" />
            <mxPoint as="targetPoint" />
          </mxGeometry>
        </mxCell>
        <mxCell id="nxBt3rA2UtLreLydVFGP-181" value="" style="endArrow=none;html=1;strokeWidth=4;fontSize=16;fillColor=#60a917;strokeColor=#318000;" edge="1" parent="nxBt3rA2UtLreLydVFGP-179">
          <mxGeometry width="50" height="50" relative="1" as="geometry">
            <mxPoint x="30" as="sourcePoint" />
            <mxPoint x="90" as="targetPoint" />
          </mxGeometry>
        </mxCell>
        <mxCell id="nxBt3rA2UtLreLydVFGP-182" value="" style="endArrow=none;html=1;strokeWidth=4;fontSize=16;strokeColor=#A680B8;" edge="1" parent="1">
          <mxGeometry width="50" height="50" relative="1" as="geometry">
            <mxPoint x="712.9999999999998" y="299.5" as="sourcePoint" />
            <mxPoint x="772.9999999999998" y="300" as="targetPoint" />
          </mxGeometry>
        </mxCell>
        <mxCell id="nxBt3rA2UtLreLydVFGP-183" value="5&#39;" style="text;html=1;align=center;verticalAlign=middle;resizable=0;points=[];autosize=1;fontSize=16;" vertex="1" parent="1">
          <mxGeometry x="863" y="289.5" width="30" height="20" as="geometry" />
        </mxCell>
        <mxCell id="nxBt3rA2UtLreLydVFGP-184" value="&lt;font color=&quot;#318000&quot;&gt;P7&lt;/font&gt;" style="text;html=1;align=center;verticalAlign=middle;resizable=0;points=[];autosize=1;fontSize=16;" vertex="1" parent="1">
          <mxGeometry x="813" y="280" width="40" height="20" as="geometry" />
        </mxCell>
        <mxCell id="nxBt3rA2UtLreLydVFGP-185" value="&lt;font color=&quot;#cc0066&quot;&gt;P5&lt;/font&gt;" style="text;html=1;align=center;verticalAlign=middle;resizable=0;points=[];autosize=1;fontSize=16;" vertex="1" parent="1">
          <mxGeometry x="355" y="280" width="40" height="20" as="geometry" />
        </mxCell>
        <mxCell id="nxBt3rA2UtLreLydVFGP-186" value="&lt;font face=&quot;Georgia&quot;&gt;1st cDNA&lt;/font&gt;" style="text;html=1;align=center;verticalAlign=middle;resizable=0;points=[];autosize=1;fontSize=16;" vertex="1" parent="1">
          <mxGeometry x="250" y="270" width="80" height="30" as="geometry" />
        </mxCell>
        <mxCell id="nxBt3rA2UtLreLydVFGP-187" value="" style="endArrow=classic;html=1;strokeColor=#FF9933;strokeWidth=3;" edge="1" parent="1">
          <mxGeometry width="50" height="50" relative="1" as="geometry">
            <mxPoint x="418" y="235" as="sourcePoint" />
            <mxPoint x="550" y="235" as="targetPoint" />
          </mxGeometry>
        </mxCell>
        <mxCell id="nxBt3rA2UtLreLydVFGP-188" value="&lt;font style=&quot;font-size: 16px&quot; color=&quot;#ff9933&quot;&gt;Read 1&lt;/font&gt;" style="text;html=1;strokeColor=none;fillColor=none;align=center;verticalAlign=middle;whiteSpace=wrap;rounded=0;" vertex="1" parent="1">
          <mxGeometry x="446" y="205" width="57" height="20" as="geometry" />
        </mxCell>
        <mxCell id="nxBt3rA2UtLreLydVFGP-189" value="" style="endArrow=classic;html=1;strokeWidth=3;strokeColor=#B5739D;" edge="1" parent="1">
          <mxGeometry width="50" height="50" relative="1" as="geometry">
            <mxPoint x="773" y="325" as="sourcePoint" />
            <mxPoint x="641" y="325" as="targetPoint" />
          </mxGeometry>
        </mxCell>
        <mxCell id="nxBt3rA2UtLreLydVFGP-190" value="&lt;font style=&quot;font-size: 16px&quot; color=&quot;#b5739d&quot;&gt;Read 2&lt;/font&gt;" style="text;html=1;strokeColor=none;fillColor=none;align=center;verticalAlign=middle;whiteSpace=wrap;rounded=0;" vertex="1" parent="1">
          <mxGeometry x="700" y="335" width="57" height="20" as="geometry" />
        </mxCell>
        <mxCell id="nxBt3rA2UtLreLydVFGP-191" value="" style="group" vertex="1" connectable="0" parent="1">
          <mxGeometry x="400" y="1145" width="730" height="495" as="geometry" />
        </mxCell>
        <mxCell id="nxBt3rA2UtLreLydVFGP-207" value="" style="endArrow=open;html=1;strokeWidth=3;fillColor=#dae8fc;endFill=0;" edge="1" parent="nxBt3rA2UtLreLydVFGP-191">
          <mxGeometry x="-86" y="-870" width="50" height="50" as="geometry">
            <mxPoint x="194" y="-810" as="sourcePoint" />
            <mxPoint x="194" y="-720" as="targetPoint" />
            <Array as="points" />
          </mxGeometry>
        </mxCell>
        <mxCell id="nxBt3rA2UtLreLydVFGP-208" value="Results" style="text;html=1;align=center;verticalAlign=middle;resizable=0;points=[];autosize=1;fontSize=16;" vertex="1" parent="nxBt3rA2UtLreLydVFGP-191">
          <mxGeometry x="221" y="-770" width="70" height="20" as="geometry" />
        </mxCell>
        <mxCell id="nxBt3rA2UtLreLydVFGP-209" value="6" style="ellipse;whiteSpace=wrap;html=1;aspect=fixed;strokeWidth=2;fontSize=16;" vertex="1" parent="nxBt3rA2UtLreLydVFGP-191">
          <mxGeometry x="150" y="-775" width="25" height="25" as="geometry" />
        </mxCell>
        <mxCell id="nxBt3rA2UtLreLydVFGP-76" value="" style="group" vertex="1" connectable="0" parent="nxBt3rA2UtLreLydVFGP-191">
          <mxGeometry x="-20" y="55" width="730" height="440" as="geometry" />
        </mxCell>
        <mxCell id="nxBt3rA2UtLreLydVFGP-77" value="" style="group" vertex="1" connectable="0" parent="nxBt3rA2UtLreLydVFGP-76">
          <mxGeometry x="-119" y="-660" width="579" height="119" as="geometry" />
        </mxCell>
        <mxCell id="nxBt3rA2UtLreLydVFGP-78" value="" style="group" vertex="1" connectable="0" parent="nxBt3rA2UtLreLydVFGP-77">
          <mxGeometry y="45" width="344" height="74" as="geometry" />
        </mxCell>
        <mxCell id="nxBt3rA2UtLreLydVFGP-79" value="&lt;font style=&quot;font-size: 16px&quot;&gt;Ref Genome&lt;/font&gt;" style="text;html=1;align=center;verticalAlign=middle;resizable=0;points=[];autosize=1;fontColor=none;" vertex="1" parent="nxBt3rA2UtLreLydVFGP-78">
          <mxGeometry y="13" width="108" height="18" as="geometry" />
        </mxCell>
        <mxCell id="nxBt3rA2UtLreLydVFGP-80" value="" style="group" vertex="1" connectable="0" parent="nxBt3rA2UtLreLydVFGP-78">
          <mxGeometry x="128" width="216" height="74" as="geometry" />
        </mxCell>
        <mxCell id="nxBt3rA2UtLreLydVFGP-81" value="" style="group" vertex="1" connectable="0" parent="nxBt3rA2UtLreLydVFGP-80">
          <mxGeometry width="216" height="24" as="geometry" />
        </mxCell>
        <mxCell id="nxBt3rA2UtLreLydVFGP-82" value="&lt;font style=&quot;font-size: 24px&quot; color=&quot;#ff9933&quot;&gt;ACCC&lt;/font&gt;" style="text;html=1;strokeColor=none;fillColor=none;align=center;verticalAlign=middle;whiteSpace=wrap;rounded=0;" vertex="1" parent="nxBt3rA2UtLreLydVFGP-81">
          <mxGeometry width="30.857142857142858" height="20" as="geometry" />
        </mxCell>
        <mxCell id="nxBt3rA2UtLreLydVFGP-83" value="" style="endArrow=none;dashed=1;html=1;dashPattern=1 3;strokeWidth=4;" edge="1" parent="nxBt3rA2UtLreLydVFGP-81">
          <mxGeometry width="50" height="50" relative="1" as="geometry">
            <mxPoint x="54" y="10" as="sourcePoint" />
            <mxPoint x="126" y="10" as="targetPoint" />
          </mxGeometry>
        </mxCell>
        <mxCell id="nxBt3rA2UtLreLydVFGP-84" value="&lt;font style=&quot;font-size: 24px&quot;&gt;GTTT&lt;/font&gt;" style="text;html=1;align=center;verticalAlign=middle;resizable=0;points=[];autosize=1;" vertex="1" parent="nxBt3rA2UtLreLydVFGP-81">
          <mxGeometry x="123.00285714285715" y="1" width="80" height="20" as="geometry" />
        </mxCell>
        <mxCell id="nxBt3rA2UtLreLydVFGP-85" value="" style="group" vertex="1" connectable="0" parent="nxBt3rA2UtLreLydVFGP-80">
          <mxGeometry y="27" width="216" height="47" as="geometry" />
        </mxCell>
        <mxCell id="nxBt3rA2UtLreLydVFGP-86" value="&lt;font size=&quot;5&quot;&gt;TGGG&lt;/font&gt;" style="text;html=1;strokeColor=none;fillColor=none;align=center;verticalAlign=middle;whiteSpace=wrap;rounded=0;" vertex="1" parent="nxBt3rA2UtLreLydVFGP-85">
          <mxGeometry width="30.857142857142858" height="20" as="geometry" />
        </mxCell>
        <mxCell id="nxBt3rA2UtLreLydVFGP-87" value="" style="endArrow=none;dashed=1;html=1;dashPattern=1 3;strokeWidth=4;" edge="1" parent="nxBt3rA2UtLreLydVFGP-85">
          <mxGeometry width="50" height="50" relative="1" as="geometry">
            <mxPoint x="54" y="10" as="sourcePoint" />
            <mxPoint x="126" y="10" as="targetPoint" />
          </mxGeometry>
        </mxCell>
        <mxCell id="nxBt3rA2UtLreLydVFGP-88" value="&lt;font style=&quot;font-size: 24px&quot; color=&quot;#b5739d&quot;&gt;CAAA&lt;/font&gt;" style="text;html=1;align=center;verticalAlign=middle;resizable=0;points=[];autosize=1;" vertex="1" parent="nxBt3rA2UtLreLydVFGP-85">
          <mxGeometry x="123.00285714285715" y="1" width="80" height="20" as="geometry" />
        </mxCell>
        <mxCell id="nxBt3rA2UtLreLydVFGP-90" value="&lt;font color=&quot;#b5739d&quot;&gt;Read 2&lt;/font&gt;" style="text;html=1;align=center;verticalAlign=middle;resizable=0;points=[];autosize=1;fontColor=none;" vertex="1" parent="nxBt3rA2UtLreLydVFGP-85">
          <mxGeometry x="144" y="20" width="50" height="20" as="geometry" />
        </mxCell>
        <mxCell id="nxBt3rA2UtLreLydVFGP-91" value="&lt;span style=&quot;color: rgb(0 , 0 , 0) ; font-family: &amp;#34;helvetica&amp;#34; ; font-size: 16px ; font-style: normal ; font-weight: normal ; letter-spacing: normal ; text-align: center ; text-indent: 0px ; text-transform: none ; word-spacing: 0px ; background-color: rgb(248 , 249 , 250) ; text-decoration: none ; display: inline ; float: none&quot;&gt;For the 1st cDNA&lt;/span&gt;" style="text;whiteSpace=wrap;html=1;fontColor=none;" vertex="1" parent="nxBt3rA2UtLreLydVFGP-77">
          <mxGeometry x="118" width="153" height="27" as="geometry" />
        </mxCell>
        <mxCell id="nxBt3rA2UtLreLydVFGP-89" value="&lt;span style=&quot;font-family: &amp;#34;helvetica&amp;#34; ; font-size: 12px ; font-style: normal ; font-weight: normal ; letter-spacing: normal ; text-align: center ; text-indent: 0px ; text-transform: none ; word-spacing: 0px ; background-color: rgb(248 , 249 , 250) ; text-decoration: none ; display: inline ; float: none&quot;&gt;&lt;font color=&quot;#ff9933&quot;&gt;Read 1&lt;/font&gt;&lt;/span&gt;" style="text;whiteSpace=wrap;html=1;fontColor=none;" vertex="1" parent="nxBt3rA2UtLreLydVFGP-77">
          <mxGeometry x="118" y="18" width="63" height="27" as="geometry" />
        </mxCell>
        <mxCell id="nxBt3rA2UtLreLydVFGP-95" value="&lt;font face=&quot;Comic Sans MS&quot; color=&quot;#ff6666&quot;&gt;&lt;span style=&quot;font-size: 18.66666603088379px&quot;&gt;For&amp;nbsp;&lt;/span&gt;&lt;span style=&quot;font-size: 18.66666603088379px&quot;&gt;the same RNA fragment,&lt;/span&gt;&lt;span style=&quot;font-size: 14pt&quot;&gt;Read1 and Read2 are both mapping to the sense strand and anti-sense strand.&lt;br&gt;Non-stranded protocol doesn&#39;t preserve strand-of-origin information.&lt;/span&gt;&lt;span style=&quot;font-size: 18.66666603088379px&quot;&gt;&lt;br&gt;&lt;/span&gt;&lt;/font&gt;&lt;span style=&quot;font-family: &amp;#34;arial&amp;#34; ; font-size: 18.66666603088379px&quot;&gt;&lt;br&gt;&lt;/span&gt;" style="text;whiteSpace=wrap;html=1;" vertex="1" parent="nxBt3rA2UtLreLydVFGP-76">
          <mxGeometry x="-119" y="-530" width="674.31" height="125" as="geometry" />
        </mxCell>
        <mxCell id="nxBt3rA2UtLreLydVFGP-96" value="&lt;font size=&quot;3&quot;&gt;&lt;span&gt;target RNA&lt;/span&gt;&lt;/font&gt;" style="text;html=1;align=center;verticalAlign=middle;resizable=0;points=[];autosize=1;fontColor=none;" vertex="1" parent="nxBt3rA2UtLreLydVFGP-76">
          <mxGeometry x="11" y="-748" width="90" height="18" as="geometry" />
        </mxCell>
        <mxCell id="nxBt3rA2UtLreLydVFGP-97" value="" style="group" vertex="1" connectable="0" parent="nxBt3rA2UtLreLydVFGP-76">
          <mxGeometry x="128" y="-750" width="216" height="20" as="geometry" />
        </mxCell>
        <mxCell id="nxBt3rA2UtLreLydVFGP-98" value="&lt;font style=&quot;font-size: 24px&quot;&gt;ACCC&lt;/font&gt;" style="text;html=1;strokeColor=none;fillColor=none;align=center;verticalAlign=middle;whiteSpace=wrap;rounded=0;" vertex="1" parent="nxBt3rA2UtLreLydVFGP-97">
          <mxGeometry width="30.857142857142858" height="20" as="geometry" />
        </mxCell>
        <mxCell id="nxBt3rA2UtLreLydVFGP-99" value="" style="endArrow=none;dashed=1;html=1;dashPattern=1 3;strokeWidth=4;" edge="1" parent="nxBt3rA2UtLreLydVFGP-97">
          <mxGeometry width="50" height="50" relative="1" as="geometry">
            <mxPoint x="54" y="10" as="sourcePoint" />
            <mxPoint x="126" y="10" as="targetPoint" />
          </mxGeometry>
        </mxCell>
        <mxCell id="nxBt3rA2UtLreLydVFGP-100" value="&lt;font style=&quot;font-size: 24px&quot;&gt;GUUU&lt;/font&gt;" style="text;html=1;align=center;verticalAlign=middle;resizable=0;points=[];autosize=1;" vertex="1" parent="nxBt3rA2UtLreLydVFGP-97">
          <mxGeometry x="117.00285714285715" width="90" height="20" as="geometry" />
        </mxCell>
        <mxCell id="nxBt3rA2UtLreLydVFGP-101" value="&lt;font style=&quot;font-size: 16px&quot; face=&quot;Comic Sans MS&quot;&gt;For the 1st cDNA,Reads1 are mapping to the sense strand of targert RNA&lt;br&gt;Reads 2 are mapping to the anti-sense strand of target RNA.&lt;br&gt;in contrast,for the 2nd cDNA,it is reversed.&lt;/font&gt;" style="text;html=1;align=center;verticalAlign=middle;resizable=0;points=[];autosize=1;fontColor=none;" vertex="1" parent="nxBt3rA2UtLreLydVFGP-76">
          <mxGeometry x="-74" y="-720" width="570" height="50" as="geometry" />
        </mxCell>
        <mxCell id="nxBt3rA2UtLreLydVFGP-114" value="&lt;span style=&quot;font-family: &amp;#34;helvetica&amp;#34; ; font-size: 12px ; font-style: normal ; font-weight: normal ; letter-spacing: normal ; text-align: center ; text-indent: 0px ; text-transform: none ; word-spacing: 0px ; background-color: rgb(248 , 249 , 250) ; text-decoration: none ; display: inline ; float: none&quot;&gt;&lt;font color=&quot;#ff9933&quot;&gt;Read 1&lt;/font&gt;&lt;/span&gt;" style="text;whiteSpace=wrap;html=1;fontColor=none;" vertex="1" parent="nxBt3rA2UtLreLydVFGP-76">
          <mxGeometry x="441" y="-568" width="63" height="27" as="geometry" />
        </mxCell>
        <mxCell id="nxBt3rA2UtLreLydVFGP-102" value="" style="group" vertex="1" connectable="0" parent="nxBt3rA2UtLreLydVFGP-191">
          <mxGeometry x="185" y="-637" width="344" height="130" as="geometry" />
        </mxCell>
        <mxCell id="nxBt3rA2UtLreLydVFGP-103" value="" style="group" vertex="1" connectable="0" parent="nxBt3rA2UtLreLydVFGP-102">
          <mxGeometry y="27" width="344" height="103" as="geometry" />
        </mxCell>
        <mxCell id="nxBt3rA2UtLreLydVFGP-104" value="" style="group" vertex="1" connectable="0" parent="nxBt3rA2UtLreLydVFGP-103">
          <mxGeometry x="128" width="216" height="103" as="geometry" />
        </mxCell>
        <mxCell id="nxBt3rA2UtLreLydVFGP-105" value="" style="group" vertex="1" connectable="0" parent="nxBt3rA2UtLreLydVFGP-104">
          <mxGeometry x="-30" y="55" width="216" height="24" as="geometry" />
        </mxCell>
        <mxCell id="nxBt3rA2UtLreLydVFGP-106" value="&lt;font style=&quot;font-size: 24px&quot; color=&quot;#b5739d&quot;&gt;ACCC&lt;/font&gt;" style="text;html=1;strokeColor=none;fillColor=none;align=center;verticalAlign=middle;whiteSpace=wrap;rounded=0;" vertex="1" parent="nxBt3rA2UtLreLydVFGP-105">
          <mxGeometry width="30.857142857142858" height="20" as="geometry" />
        </mxCell>
        <mxCell id="nxBt3rA2UtLreLydVFGP-107" value="" style="endArrow=none;dashed=1;html=1;dashPattern=1 3;strokeWidth=4;" edge="1" parent="nxBt3rA2UtLreLydVFGP-105">
          <mxGeometry width="50" height="50" relative="1" as="geometry">
            <mxPoint x="54" y="10" as="sourcePoint" />
            <mxPoint x="126" y="10" as="targetPoint" />
          </mxGeometry>
        </mxCell>
        <mxCell id="nxBt3rA2UtLreLydVFGP-108" value="&lt;font style=&quot;font-size: 24px&quot;&gt;GTTT&lt;/font&gt;" style="text;html=1;align=center;verticalAlign=middle;resizable=0;points=[];autosize=1;" vertex="1" parent="nxBt3rA2UtLreLydVFGP-105">
          <mxGeometry x="123.00285714285715" y="1" width="80" height="20" as="geometry" />
        </mxCell>
        <mxCell id="nxBt3rA2UtLreLydVFGP-109" value="" style="group" vertex="1" connectable="0" parent="nxBt3rA2UtLreLydVFGP-104">
          <mxGeometry y="27" width="216" height="76" as="geometry" />
        </mxCell>
        <mxCell id="nxBt3rA2UtLreLydVFGP-110" value="&lt;font size=&quot;5&quot;&gt;TGGG&lt;/font&gt;" style="text;html=1;strokeColor=none;fillColor=none;align=center;verticalAlign=middle;whiteSpace=wrap;rounded=0;" vertex="1" parent="nxBt3rA2UtLreLydVFGP-109">
          <mxGeometry x="-30" y="55" width="30.857142857142858" height="20" as="geometry" />
        </mxCell>
        <mxCell id="nxBt3rA2UtLreLydVFGP-111" value="" style="endArrow=none;dashed=1;html=1;dashPattern=1 3;strokeWidth=4;" edge="1" parent="nxBt3rA2UtLreLydVFGP-109">
          <mxGeometry width="50" height="50" relative="1" as="geometry">
            <mxPoint x="24" y="65" as="sourcePoint" />
            <mxPoint x="96" y="65" as="targetPoint" />
          </mxGeometry>
        </mxCell>
        <mxCell id="nxBt3rA2UtLreLydVFGP-112" value="&lt;font style=&quot;font-size: 24px&quot; color=&quot;#ff9933&quot;&gt;CAAA&lt;/font&gt;" style="text;html=1;align=center;verticalAlign=middle;resizable=0;points=[];autosize=1;" vertex="1" parent="nxBt3rA2UtLreLydVFGP-109">
          <mxGeometry x="93.00285714285715" y="56" width="80" height="20" as="geometry" />
        </mxCell>
        <mxCell id="nxBt3rA2UtLreLydVFGP-113" value="&lt;span style=&quot;font-family: &amp;#34;helvetica&amp;#34; ; font-size: 12px ; font-style: normal ; font-weight: normal ; letter-spacing: normal ; text-align: center ; text-indent: 0px ; text-transform: none ; word-spacing: 0px ; background-color: rgb(248 , 249 , 250) ; text-decoration: none ; display: inline ; float: none&quot;&gt;&lt;font color=&quot;#b5739d&quot;&gt;Read 2&lt;/font&gt;&lt;/span&gt;" style="text;whiteSpace=wrap;html=1;fontColor=none;" vertex="1" parent="nxBt3rA2UtLreLydVFGP-109">
          <mxGeometry x="-32" y="3" width="63" height="27" as="geometry" />
        </mxCell>
        <mxCell id="nxBt3rA2UtLreLydVFGP-115" value="&lt;font style=&quot;font-size: 16px&quot;&gt;For the 2nd cDNA&lt;/font&gt;" style="text;html=1;align=center;verticalAlign=middle;resizable=0;points=[];autosize=1;fontColor=none;" vertex="1" parent="nxBt3rA2UtLreLydVFGP-191">
          <mxGeometry x="281" y="-600" width="144" height="18" as="geometry" />
        </mxCell>
        <mxCell id="nxBt3rA2UtLreLydVFGP-263" value="" style="group" vertex="1" connectable="0" parent="1">
          <mxGeometry x="787" y="55" width="90" as="geometry" />
        </mxCell>
        <mxCell id="nxBt3rA2UtLreLydVFGP-264" value="" style="endArrow=none;html=1;strokeWidth=4;fontSize=16;fillColor=#e3c800;" edge="1" parent="nxBt3rA2UtLreLydVFGP-263">
          <mxGeometry width="50" height="50" relative="1" as="geometry">
            <mxPoint x="30" as="sourcePoint" />
            <mxPoint as="targetPoint" />
          </mxGeometry>
        </mxCell>
        <mxCell id="nxBt3rA2UtLreLydVFGP-265" value="" style="endArrow=none;html=1;strokeWidth=4;fontSize=16;fillColor=#60a917;strokeColor=#CC0066;" edge="1" parent="nxBt3rA2UtLreLydVFGP-263">
          <mxGeometry width="50" height="50" relative="1" as="geometry">
            <mxPoint x="30" as="sourcePoint" />
            <mxPoint x="90" as="targetPoint" />
          </mxGeometry>
        </mxCell>
        <mxCell id="nxBt3rA2UtLreLydVFGP-266" value="" style="endArrow=none;dashed=1;html=1;strokeColor=#000000;strokeWidth=4;fontSize=16;dashPattern=1 1;" edge="1" parent="1">
          <mxGeometry width="50" height="50" relative="1" as="geometry">
            <mxPoint x="414" y="55" as="sourcePoint" />
            <mxPoint x="437" y="55" as="targetPoint" />
          </mxGeometry>
        </mxCell>
        <mxCell id="nxBt3rA2UtLreLydVFGP-267" value="" style="endArrow=none;html=1;strokeWidth=4;fontSize=16;strokeColor=#009900;" edge="1" parent="1">
          <mxGeometry width="50" height="50" relative="1" as="geometry">
            <mxPoint x="367" y="55" as="sourcePoint" />
            <mxPoint x="414" y="55" as="targetPoint" />
          </mxGeometry>
        </mxCell>
        <mxCell id="nxBt3rA2UtLreLydVFGP-268" value="" style="group" vertex="1" connectable="0" parent="1">
          <mxGeometry x="367" y="45" width="555" height="80" as="geometry" />
        </mxCell>
        <mxCell id="nxBt3rA2UtLreLydVFGP-269" value="" style="group" vertex="1" connectable="0" parent="nxBt3rA2UtLreLydVFGP-268">
          <mxGeometry x="150" width="280" height="20" as="geometry" />
        </mxCell>
        <mxCell id="nxBt3rA2UtLreLydVFGP-270" value="&lt;font size=&quot;5&quot; color=&quot;#ff6666&quot;&gt;AAAC&lt;/font&gt;" style="text;html=1;strokeColor=none;fillColor=none;align=center;verticalAlign=middle;whiteSpace=wrap;rounded=0;" vertex="1" parent="nxBt3rA2UtLreLydVFGP-269">
          <mxGeometry width="40" height="20" as="geometry" />
        </mxCell>
        <mxCell id="nxBt3rA2UtLreLydVFGP-271" value="" style="endArrow=none;dashed=1;html=1;dashPattern=1 3;strokeWidth=4;fillColor=#1ba1e2;strokeColor=#FF6666;" edge="1" parent="nxBt3rA2UtLreLydVFGP-269">
          <mxGeometry width="50" height="50" relative="1" as="geometry">
            <mxPoint x="60" y="9.5" as="sourcePoint" />
            <mxPoint x="130" y="10" as="targetPoint" />
          </mxGeometry>
        </mxCell>
        <mxCell id="nxBt3rA2UtLreLydVFGP-272" value="&lt;font size=&quot;5&quot; color=&quot;#ff6666&quot;&gt;GGGT&lt;/font&gt;" style="text;html=1;align=center;verticalAlign=middle;resizable=0;points=[];autosize=1;" vertex="1" parent="nxBt3rA2UtLreLydVFGP-269">
          <mxGeometry x="125" width="90" height="20" as="geometry" />
        </mxCell>
        <mxCell id="nxBt3rA2UtLreLydVFGP-273" value="" style="endArrow=none;html=1;strokeWidth=4;fontSize=16;strokeColor=#FF9933;" edge="1" parent="nxBt3rA2UtLreLydVFGP-269">
          <mxGeometry width="50" height="50" relative="1" as="geometry">
            <mxPoint x="210" y="9.5" as="sourcePoint" />
            <mxPoint x="270" y="10" as="targetPoint" />
          </mxGeometry>
        </mxCell>
        <mxCell id="nxBt3rA2UtLreLydVFGP-274" value="" style="endArrow=none;html=1;strokeWidth=4;fontSize=16;fillColor=#fa6800;strokeColor=#B5739D;" edge="1" parent="nxBt3rA2UtLreLydVFGP-268">
          <mxGeometry width="50" height="50" relative="1" as="geometry">
            <mxPoint x="70" y="10" as="sourcePoint" />
            <mxPoint x="130" y="9.5" as="targetPoint" />
          </mxGeometry>
        </mxCell>
        <mxCell id="nxBt3rA2UtLreLydVFGP-275" value="&lt;font style=&quot;font-size: 24px&quot; color=&quot;#ff6666&quot;&gt;CCCA&lt;/font&gt;" style="text;html=1;align=center;verticalAlign=middle;resizable=0;points=[];autosize=1;" vertex="1" parent="nxBt3rA2UtLreLydVFGP-268">
          <mxGeometry x="280" y="30" width="80" height="20" as="geometry" />
        </mxCell>
        <mxCell id="nxBt3rA2UtLreLydVFGP-276" value="" style="endArrow=none;dashed=1;html=1;dashPattern=1 3;strokeWidth=4;strokeColor=#FF6666;" edge="1" parent="nxBt3rA2UtLreLydVFGP-268">
          <mxGeometry width="50" height="50" relative="1" as="geometry">
            <mxPoint x="210" y="40" as="sourcePoint" />
            <mxPoint x="290" y="40.5" as="targetPoint" />
          </mxGeometry>
        </mxCell>
        <mxCell id="nxBt3rA2UtLreLydVFGP-277" value="&lt;font size=&quot;5&quot; color=&quot;#ff6666&quot;&gt;TTTG&lt;/font&gt;" style="text;html=1;strokeColor=none;fillColor=none;align=center;verticalAlign=middle;whiteSpace=wrap;rounded=0;" vertex="1" parent="nxBt3rA2UtLreLydVFGP-268">
          <mxGeometry x="150" y="30" width="40" height="20" as="geometry" />
        </mxCell>
        <mxCell id="nxBt3rA2UtLreLydVFGP-278" value="" style="group" vertex="1" connectable="0" parent="nxBt3rA2UtLreLydVFGP-268">
          <mxGeometry y="39.5" width="130" height="0.5" as="geometry" />
        </mxCell>
        <mxCell id="nxBt3rA2UtLreLydVFGP-279" value="" style="endArrow=none;dashed=1;html=1;strokeColor=#000000;strokeWidth=4;fontSize=16;dashPattern=1 1;" edge="1" parent="nxBt3rA2UtLreLydVFGP-278">
          <mxGeometry width="50" height="50" relative="1" as="geometry">
            <mxPoint x="47" y="0.5" as="sourcePoint" />
            <mxPoint x="70" y="0.5" as="targetPoint" />
          </mxGeometry>
        </mxCell>
        <mxCell id="nxBt3rA2UtLreLydVFGP-280" value="" style="endArrow=none;html=1;strokeWidth=4;fontSize=16;strokeColor=#009900;" edge="1" parent="nxBt3rA2UtLreLydVFGP-278">
          <mxGeometry width="50" height="50" relative="1" as="geometry">
            <mxPoint y="0.5" as="sourcePoint" />
            <mxPoint x="47" y="0.5" as="targetPoint" />
          </mxGeometry>
        </mxCell>
        <mxCell id="nxBt3rA2UtLreLydVFGP-281" value="" style="endArrow=none;html=1;strokeWidth=4;fontSize=16;fillColor=#fa6800;strokeColor=#B5739D;" edge="1" parent="nxBt3rA2UtLreLydVFGP-278">
          <mxGeometry width="50" height="50" relative="1" as="geometry">
            <mxPoint x="70" y="0.5" as="sourcePoint" />
            <mxPoint x="130" as="targetPoint" />
          </mxGeometry>
        </mxCell>
        <mxCell id="nxBt3rA2UtLreLydVFGP-282" value="" style="group" vertex="1" connectable="0" parent="nxBt3rA2UtLreLydVFGP-268">
          <mxGeometry x="420" y="40.5" width="90" as="geometry" />
        </mxCell>
        <mxCell id="nxBt3rA2UtLreLydVFGP-283" value="" style="endArrow=none;html=1;strokeWidth=4;fontSize=16;fillColor=#e3c800;" edge="1" parent="nxBt3rA2UtLreLydVFGP-282">
          <mxGeometry width="50" height="50" relative="1" as="geometry">
            <mxPoint x="30" as="sourcePoint" />
            <mxPoint as="targetPoint" />
          </mxGeometry>
        </mxCell>
        <mxCell id="nxBt3rA2UtLreLydVFGP-284" value="" style="endArrow=none;html=1;strokeWidth=4;fontSize=16;fillColor=#60a917;strokeColor=#CC0066;" edge="1" parent="nxBt3rA2UtLreLydVFGP-282">
          <mxGeometry width="50" height="50" relative="1" as="geometry">
            <mxPoint x="30" as="sourcePoint" />
            <mxPoint x="90" as="targetPoint" />
          </mxGeometry>
        </mxCell>
        <mxCell id="nxBt3rA2UtLreLydVFGP-285" value="" style="endArrow=none;html=1;strokeWidth=4;fontSize=16;strokeColor=#FF9933;" edge="1" parent="nxBt3rA2UtLreLydVFGP-268">
          <mxGeometry width="50" height="50" relative="1" as="geometry">
            <mxPoint x="360" y="40" as="sourcePoint" />
            <mxPoint x="420" y="40.5" as="targetPoint" />
          </mxGeometry>
        </mxCell>
        <mxCell id="nxBt3rA2UtLreLydVFGP-286" value="5&#39;" style="text;html=1;align=center;verticalAlign=middle;resizable=0;points=[];autosize=1;fontSize=16;" vertex="1" parent="nxBt3rA2UtLreLydVFGP-268">
          <mxGeometry x="510" y="30" width="30" height="20" as="geometry" />
        </mxCell>
        <mxCell id="nxBt3rA2UtLreLydVFGP-287" value="&lt;font color=&quot;#cc0066&quot;&gt;anti-P5&lt;/font&gt;" style="text;html=1;align=center;verticalAlign=middle;resizable=0;points=[];autosize=1;fontSize=16;" vertex="1" parent="nxBt3rA2UtLreLydVFGP-268">
          <mxGeometry x="445" y="20.5" width="70" height="20" as="geometry" />
        </mxCell>
        <mxCell id="nxBt3rA2UtLreLydVFGP-295" value="&lt;span style=&quot;color: rgb(0 , 0 , 0) ; font-family: &amp;#34;helvetica&amp;#34; ; font-size: 16px ; font-style: normal ; font-weight: normal ; letter-spacing: normal ; text-align: center ; text-indent: 0px ; text-transform: none ; word-spacing: 0px ; background-color: rgb(248 , 249 , 250) ; text-decoration: none ; display: inline ; float: none&quot;&gt;3&#39;&lt;/span&gt;" style="text;whiteSpace=wrap;html=1;" vertex="1" parent="nxBt3rA2UtLreLydVFGP-268">
          <mxGeometry x="515" y="-5" width="40" height="30" as="geometry" />
        </mxCell>
        <mxCell id="nxBt3rA2UtLreLydVFGP-288" value="5&#39;" style="text;html=1;align=center;verticalAlign=middle;resizable=0;points=[];autosize=1;fontSize=16;" vertex="1" parent="1">
          <mxGeometry x="337" y="45" width="30" height="20" as="geometry" />
        </mxCell>
        <mxCell id="nxBt3rA2UtLreLydVFGP-289" value="&lt;font color=&quot;#009900&quot;&gt;anti-P7&lt;/font&gt;" style="text;html=1;align=center;verticalAlign=middle;resizable=0;points=[];autosize=1;fontSize=16;" vertex="1" parent="1">
          <mxGeometry x="357" y="65" width="70" height="20" as="geometry" />
        </mxCell>
        <mxCell id="nxBt3rA2UtLreLydVFGP-290" value="&lt;font color=&quot;#009900&quot;&gt;P7&lt;/font&gt;" style="text;html=1;align=center;verticalAlign=middle;resizable=0;points=[];autosize=1;fontSize=16;" vertex="1" parent="1">
          <mxGeometry x="367" y="35" width="40" height="20" as="geometry" />
        </mxCell>
        <mxCell id="nxBt3rA2UtLreLydVFGP-291" value="&lt;span style=&quot;font-size: 15px&quot;&gt;&lt;font color=&quot;#b5739d&quot;&gt;Rd2 SP&lt;/font&gt;&lt;/span&gt;" style="text;html=1;align=center;verticalAlign=middle;resizable=0;points=[];autosize=1;fontSize=16;" vertex="1" parent="1">
          <mxGeometry x="427" y="30" width="70" height="30" as="geometry" />
        </mxCell>
        <mxCell id="nxBt3rA2UtLreLydVFGP-292" value="&lt;span style=&quot;font-family: &amp;#34;helvetica&amp;#34; ; font-size: 16px ; font-style: normal ; font-weight: normal ; letter-spacing: normal ; text-align: center ; text-indent: 0px ; text-transform: none ; word-spacing: 0px ; text-decoration: none ; display: inline ; float: none&quot;&gt;&lt;font color=&quot;#ff9933&quot;&gt;Rd1 SP&lt;/font&gt;&lt;/span&gt;" style="text;whiteSpace=wrap;html=1;" vertex="1" parent="1">
          <mxGeometry x="732" y="60" width="80" height="30" as="geometry" />
        </mxCell>
        <mxCell id="nxBt3rA2UtLreLydVFGP-293" value="&lt;font color=&quot;#cc0066&quot;&gt;P5&lt;/font&gt;" style="text;html=1;align=center;verticalAlign=middle;resizable=0;points=[];autosize=1;fontSize=16;" vertex="1" parent="1">
          <mxGeometry x="827" y="35" width="40" height="20" as="geometry" />
        </mxCell>
        <mxCell id="nxBt3rA2UtLreLydVFGP-294" value="&lt;font face=&quot;Georgia&quot;&gt;1st cDNA&lt;/font&gt;" style="text;html=1;align=center;verticalAlign=middle;resizable=0;points=[];autosize=1;fontSize=16;" vertex="1" parent="1">
          <mxGeometry x="262" y="55" width="80" height="30" as="geometry" />
        </mxCell>
        <mxCell id="nxBt3rA2UtLreLydVFGP-296" value="&lt;span style=&quot;font-family: &amp;#34;helvetica&amp;#34; ; font-size: 16px ; font-style: normal ; font-weight: normal ; letter-spacing: normal ; text-align: center ; text-indent: 0px ; text-transform: none ; word-spacing: 0px ; text-decoration: none ; display: inline ; float: none&quot;&gt;&lt;font color=&quot;#ff9933&quot;&gt;PBS1&lt;/font&gt;&lt;/span&gt;" style="text;whiteSpace=wrap;html=1;" vertex="1" parent="1">
          <mxGeometry x="733" y="25" width="80" height="30" as="geometry" />
        </mxCell>
        <mxCell id="nxBt3rA2UtLreLydVFGP-158" value="" style="endArrow=none;dashed=1;html=1;strokeColor=#000000;strokeWidth=4;fontSize=16;dashPattern=1 1;" edge="1" parent="1">
          <mxGeometry x="343" y="205" width="50" height="50" as="geometry">
            <mxPoint x="400" y="270" as="sourcePoint" />
            <mxPoint x="423" y="270" as="targetPoint" />
          </mxGeometry>
        </mxCell>
        <mxCell id="nxBt3rA2UtLreLydVFGP-159" value="" style="endArrow=none;html=1;strokeWidth=4;fontSize=16;strokeColor=#CC0066;" edge="1" parent="1">
          <mxGeometry x="343" y="205" width="50" height="50" as="geometry">
            <mxPoint x="353" y="270" as="sourcePoint" />
            <mxPoint x="400" y="270" as="targetPoint" />
          </mxGeometry>
        </mxCell>
        <mxCell id="nxBt3rA2UtLreLydVFGP-160" value="&lt;font color=&quot;#cc0066&quot;&gt;anti-P5&lt;/font&gt;" style="text;html=1;align=center;verticalAlign=middle;resizable=0;points=[];autosize=1;fontSize=16;" vertex="1" parent="1">
          <mxGeometry x="338" y="250" width="70" height="20" as="geometry" />
        </mxCell>
      </root>
    </mxGraphModel>
  </diagram>
</mxfile>
